{"accessors" : [{"bufferView" : 0, "byteOffset" : 0, "componentType" : 5123, "count" : 12096, "type" : "SCALAR", "max" : [10079], "min" : [0]}, {"bufferView" : 1, "byteOffset" : 0, "componentType" : 5126, "count" : 10080, "type" : "VEC3", "max" : [27.847057342529297, 24.41502571105957, 15.53486442565918], "min" : [-21.570741653442383, 0.010425000451505184, -14.686746597290039], "name" : "POSITION"}, {"bufferView" : 1, "byteOffset" : 12, "componentType" : 5126, "count" : 10080, "type" : "VEC3", "max" : [0.998399555683136, 1.0000044107437134, 1.0000044107437134], "min" : [-0.9984564185142517, -1.0000044107437134, -1.0000044107437134], "name" : "NORMAL"}, {"bufferView" : 1, "byteOffset" : 24, "componentType" : 5126, "count" : 10080, "type" : "VEC2", "max" : [2, -0], "min" : [0, -2], "name" : "TEXCOORD_0"}], "asset" : {"generator" : "Aspose.3D 22.6", "version" : "2.0"}, "buffers" : [{"uri" : "data:application/octet-stream;base64,", "byteLength" : 411272}], "bufferViews" : [{"buffer" : 0, "byteOffset" : 0, "byteLength" : 24192, "target" : 34963}, {"buffer" : 0, "byteOffset" : 24196, "byteLength" : 387072, "byteStride" : 32, "target" : 34962}], "materials" : [{"name" : "Clear-Coat-Plastic", "pbrMetallicRoughness" : {"baseColorFactor" : [0.727575, 0.727575, 0.727575, 1], "metallicFactor" : 0, "roughnessFactor" : 0}, "emissiveFactor" : [0, 0, 0], "alphaMode" : "OPAQUE", "doubleSided" : false}], "meshes" : [{"primitives" : [{"attributes" : {"POSITION" : 1, "NORMAL" : 2, "TEXCOORD_0" : 3}, "indices" : 0, "material" : 0, "mode" : 4}], "name" : ""}], "nodes" : [{"matrix" : [1, 0, 0, 0, 0, 1, 0, 0, 0, 0, 1, 0, -1.5255, -9.339, -0.4365, 1], "mesh" : 0, "name" : "Utah-Teapot-Quads"}], "scene" : 0, "scenes" : [{"nodes" : [0]}]}